<?xml version="1.0" encoding="utf-8"?>
<!-- Generator: Adobe Illustrator 16.0.0, SVG Export Plug-In . SVG Version: 6.00 Build 0)  -->
<!DOCTYPE svg PUBLIC "-//W3C//DTD SVG 1.0//EN" "http://www.w3.org/TR/2001/REC-SVG-20010904/DTD/svg10.dtd">
<svg version="1.0" id="Layer_1" xmlns="http://www.w3.org/2000/svg" xmlns:xlink="http://www.w3.org/1999/xlink" x="0px" y="0px"
	 width="21.5px" height="14.403px" viewBox="0 0 21.5 14.403" enable-background="new 0 0 21.5 14.403" xml:space="preserve">
<g>
	<path fill="#231F20" d="M20.5,2H1C0.448,2,0,1.552,0,1s0.448-1,1-1h19.5c0.552,0,1,0.448,1,1S21.052,2,20.5,2z"/>
</g>
<g>
	<path fill="#231F20" d="M20.5,8.201H1c-0.552,0-1-0.447-1-1c0-0.552,0.448-1,1-1h19.5c0.552,0,1,0.448,1,1
		C21.5,7.754,21.052,8.201,20.5,8.201z"/>
</g>
<g>
	<path fill="#231F20" d="M20.5,14.403H1c-0.552,0-1-0.448-1-1s0.448-1,1-1h19.5c0.552,0,1,0.448,1,1S21.052,14.403,20.5,14.403z"/>
</g>
</svg>
